<svg id="Layer_1" data-name="Layer 1" xmlns="http://www.w3.org/2000/svg" viewBox="0 0 1028 1028"><defs><style>.cls-1,.cls-2{fill:#069948;}.cls-1{stroke:#069948;stroke-miterlimit:10;stroke-width:5px;}.cls-3{fill:#fff;}</style></defs><path class="cls-1" d="M641.17,414.39H386.83a30.65,30.65,0,0,0-30.61,30.52V558.68a30.65,30.65,0,0,0,30.61,30.52H525.67L514,635.2,564.79,607l32-17.79h44.36a30.65,30.65,0,0,0,30.61-30.52V444.91A30.65,30.65,0,0,0,641.17,414.39Z"/><rect class="cls-2" x="356.22" y="416.07" width="315.56" height="174.82" rx="28.76"/><path class="cls-3" d="M400.59,535.87h-.28c-.79,2-1.56,3.84-2.28,5.5a30.23,30.23,0,0,1-2.81,5,19.67,19.67,0,0,1-3.12,3.75,5.11,5.11,0,0,1-3.5,1.35q-5.94,0-9-10.3t-3-28.17a192.37,192.37,0,0,1,1.64-25.82,134.66,134.66,0,0,1,4.44-21.2,49.64,49.64,0,0,1,6.55-14.31q3.8-5.27,8-5.27a7.42,7.42,0,0,1,5.26,2,15.15,15.15,0,0,1,3.51,5.18l2.53-32.68c.07-.94.13-2,.19-3.07s.08-2,.08-2.66a23.31,23.31,0,0,0-.58-5.63,9.6,9.6,0,0,0-1.6-3.62,6,6,0,0,0-2.18-1.91,22.62,22.62,0,0,0-2.7-1.11l.62-7.44,19.11-2.61.37,1.6-9.17,116.94c-.16,1.94-.34,4.51-.56,7.69s-.32,5.58-.32,7.19q0,5.73.87,7.89a3.08,3.08,0,0,0,3.05,2.17,4,4,0,0,0,2.3-1.11,12.47,12.47,0,0,0,1.89-1.81l-.75,9c-2.24,2.61-4,4.61-5.38,6a6.28,6.28,0,0,1-4.66,2.06c-2.34,0-4.21-1.35-5.6-4.07A31.69,31.69,0,0,1,400.59,535.87Zm4-64.37c0-1.67-.07-3.39-.22-5.17a29.16,29.16,0,0,0-.87-5.07,13.53,13.53,0,0,0-1.6-4,2.94,2.94,0,0,0-2.59-1.46q-2.19,0-4.08,4.77a70.12,70.12,0,0,0-3.36,13q-1.37,7.63-2.19,18.13t-.81,21.64q0,4.92.25,9.14a53.29,53.29,0,0,0,.84,7.13,15.1,15.1,0,0,0,1.65,4.82,3,3,0,0,0,2.62,1.71c1.07,0,2.13-.93,3.19-2.77a34.2,34.2,0,0,0,2.85-6.77Z"/><path class="cls-3" d="M458.44,484.14q0,6.83-.45,13.18a90,90,0,0,1-1.33,10.9,38.68,38.68,0,0,1-2.08,7.65c-.73,1.66-1.75,2.5-3.07,2.5q-2.55,0-4-5.61A49.52,49.52,0,0,1,446,500.19q0-6.51.43-11.2t1.34-14.24a48.87,48.87,0,0,0-3.93,10.38q-1.65,6.14-3.16,14l-5.39,107.22H424.06l4.7-93.13c.14-2.83.32-6.51.53-11.06s.33-8.33.33-11.35q0-8.79-.77-12c-.51-2.12-1.5-3.18-3-3.18a3.08,3.08,0,0,0-2.24,1.52,34.36,34.36,0,0,0-2,2.87l.75-13.63a91.06,91.06,0,0,1,5.28-8.55q2.52-3.56,4.77-3.56,4,0,6,7t2.65,19.76h.23q3.39-15.9,5.74-22.18t5.06-6.29q2.9,0,4.57,8.11T458.44,484.14Z"/><path class="cls-3" d="M483.93,536.94h-.27q-1.2,2.79-2.27,5.12a29.53,29.53,0,0,1-2.72,4.65,17.52,17.52,0,0,1-3,3.4,5.25,5.25,0,0,1-3.49,1.35q-5.94,0-9-9.59t-3-26.26a164,164,0,0,1,1.67-24.05,121.68,121.68,0,0,1,4.47-19.75A45.74,45.74,0,0,1,473,458.47q3.78-4.91,8-4.91a8,8,0,0,1,5.38,2,14.51,14.51,0,0,1,3.77,5.34l10.46-5.9.48,1.5-5,57.62q-.27,2.89-.58,7.26t-.3,6.6c0,3.56.29,6,.88,7.36a3.13,3.13,0,0,0,3.07,2,4.07,4.07,0,0,0,2.31-1,13.16,13.16,0,0,0,1.89-1.68l-.75,8.43q-3.37,3.65-5.4,5.57a6.62,6.62,0,0,1-4.69,1.92q-3.51,0-5.61-3.79A28.21,28.21,0,0,1,483.93,536.94ZM488,477.52q0-2.06-.21-4.86a26.72,26.72,0,0,0-.71-4.78,10,10,0,0,0-1.61-3.69,3,3,0,0,0-2.45-1.27q-2.26,0-4.15,4.45a61.22,61.22,0,0,0-3.37,11.83,161.15,161.15,0,0,0-2.25,17q-.83,9.68-.82,19.79,0,4.57.26,8.51a46.54,46.54,0,0,0,.84,6.65,13.27,13.27,0,0,0,1.65,4.49,3.07,3.07,0,0,0,2.62,1.59c1.07,0,2.1-.86,3.09-2.57a35.51,35.51,0,0,0,2.75-6.32Z"/><path class="cls-3" d="M567.79,476.61a219.4,219.4,0,0,1-1.64,26.81,152.22,152.22,0,0,1-4.57,23.47A64.73,64.73,0,0,1,554.35,544q-4.19,6.54-9.58,6.53-5,0-8.06-5.26t-4.21-15.13q-3.66,10.85-7.17,15.53t-7.71,4.68q-4,0-6.25-6.69t-2.28-16.79q0-3.71.27-7c.18-2.2.4-4.59.65-7.19l2.32-22c.16-1.74.34-4.1.56-7.1s.33-5.22.33-6.64a23.5,23.5,0,0,0-.77-7.1,2.94,2.94,0,0,0-3-2.18,3.57,3.57,0,0,0-2.23.93,21,21,0,0,0-2,1.76L506,462a58.62,58.62,0,0,1,5.29-5.23,7.52,7.52,0,0,1,4.77-2.18c2.71,0,4.79,1.85,6.26,5.53a38,38,0,0,1,2.2,14q0,3.06-.34,8.76t-.76,9.24l-2,18q-.33,2.87-.6,7.19t-.25,6.17a25.89,25.89,0,0,0,1.07,8.31c.72,2,1.56,3,2.52,3a4.2,4.2,0,0,0,1.29-.32,4.51,4.51,0,0,0,1.78-1.53,25.67,25.67,0,0,0,2.34-3.86,43.14,43.14,0,0,0,2.68-6.63c0-1.11.05-2.73.15-4.87s.26-4.68.47-7.64l4.5-53.67,10.85-1.3.41,1.3-4.49,53.06c-.07.74-.16,2.3-.29,4.67s-.18,4.83-.18,7.36q0,8,1.41,11.76c.95,2.54,2.34,3.8,4.18,3.8q4.65,0,8-9.4t3.36-25.14c0-1.05,0-2.19-.07-3.42s-.13-2.63-.27-4.17a17.86,17.86,0,0,0-1.4-4.35c-.68-1.48-1.32-3-1.91-4.54a42.63,42.63,0,0,1-1.74-6.53,50,50,0,0,1-.75-9.4,37.86,37.86,0,0,1,.67-7.77,20.32,20.32,0,0,1,1.72-5.19,7.05,7.05,0,0,1,2-2.5,3.59,3.59,0,0,1,2.11-.92c2.18,0,3.86,2.09,5,6.29S567.79,469.64,567.79,476.61Z"/><path class="cls-3" d="M588,549.49a10,10,0,0,1-7.18-3,22.33,22.33,0,0,1-5.1-8.33,59.6,59.6,0,0,1-3-12.42,113.66,113.66,0,0,1-1-15.65,145.09,145.09,0,0,1,1.5-21.08,94.1,94.1,0,0,1,4.47-18.4,38.49,38.49,0,0,1,7.1-12.7q4.29-4.89,9.48-4.88a10.23,10.23,0,0,1,9.29,5.24q3.19,5.25,3.19,15.74A48.4,48.4,0,0,1,604,491.28q-2.76,7.23-7.51,10.72a35.45,35.45,0,0,1-6.39,4.33,41.11,41.11,0,0,1-6.46,2.39q.06,4,.41,9.11a71,71,0,0,0,1,8.65,19.92,19.92,0,0,0,2.32,6.58,4.4,4.4,0,0,0,3.82,2.44q4,0,6.84-4.18T603.4,518l2.49,5.61q-3.07,11.77-7.86,18.82T588,549.49Zm7.71-72.89a52.23,52.23,0,0,0-1.06-12c-.71-2.79-1.68-4.19-2.93-4.19q-2.64,0-5,11.55a186.56,186.56,0,0,0-3,29.22,27.12,27.12,0,0,0,4-1.65,10.11,10.11,0,0,0,3.14-2.4,18.53,18.53,0,0,0,3.68-7.82A57.49,57.49,0,0,0,595.66,476.6Z"/><path class="cls-3" d="M651.36,484.23a203.89,203.89,0,0,1-1.57,25.8,112,112,0,0,1-4.51,21q-3.1,9.29-7.36,14.37t-9.49,5.09a13,13,0,0,1-3.71-.8,10.64,10.64,0,0,1-4.4-2.79,25.57,25.57,0,0,1-4.62-7.09,57.5,57.5,0,0,1-3.81-12l8.57-107.6c.09-1.13.16-2.19.2-3.19s.07-1.83.07-2.49a29.89,29.89,0,0,0-.42-5.49,10.77,10.77,0,0,0-1.22-3.5,5.19,5.19,0,0,0-1.86-1.79,11.17,11.17,0,0,0-2.47-1l.61-7.39,18-2.59.38,1.59-5.15,64.68h.23q.8-1.89,1.71-3.84a37.17,37.17,0,0,1,2.46-4.34,14.63,14.63,0,0,1,3-3.35,5.65,5.65,0,0,1,3.42-1.54q5.94,0,8.92,10.23T651.36,484.23Zm-12.22-.4c0-3.26-.07-6.28-.23-9a50.27,50.27,0,0,0-.86-7.13,14.89,14.89,0,0,0-1.65-4.79,3,3,0,0,0-2.61-1.7q-1.74,0-3.31,2.84a38.68,38.68,0,0,0-2.79,6.64l-4.3,55.7q0,2.39.24,4.89a35.49,35.49,0,0,0,.92,5.19,18.91,18.91,0,0,0,1.5,4.29,2.57,2.57,0,0,0,2.36,1.5q2.31,0,4.34-5A65.07,65.07,0,0,0,636.14,524q1.5-8.78,2.25-18.51T639.14,483.83Z"/></svg>